<?xml version="1.0" encoding="UTF-8" standalone="no"?>
<svg
   xmlns:dc="http://purl.org/dc/elements/1.1/"
   xmlns:cc="http://creativecommons.org/ns#"
   xmlns:rdf="http://www.w3.org/1999/02/22-rdf-syntax-ns#"
   xmlns:svg="http://www.w3.org/2000/svg"
   xmlns="http://www.w3.org/2000/svg"
   xmlns:sodipodi="http://sodipodi.sourceforge.net/DTD/sodipodi-0.dtd"
   xmlns:inkscape="http://www.inkscape.org/namespaces/inkscape"
   sodipodi:docname="pricetracker_arrowlogo.svg"
   inkscape:version="1.0 (4035a4fb49, 2020-05-01)"
   id="svg142"
   version="1.1"
   viewBox="0 0 89.214432 12.37824"
   height="12.37824mm"
   width="89.214432mm">
  <defs
     id="defs136" />
  <sodipodi:namedview
     fit-margin-bottom="0"
     fit-margin-right="0"
     fit-margin-left="0"
     fit-margin-top="0"
     lock-margins="false"
     inkscape:window-maximized="1"
     inkscape:window-y="-9"
     inkscape:window-x="-9"
     inkscape:window-height="1001"
     inkscape:window-width="1920"
     showgrid="false"
     inkscape:document-rotation="0"
     inkscape:current-layer="layer1"
     inkscape:document-units="mm"
     inkscape:cy="119.06913"
     inkscape:cx="191.49852"
     inkscape:zoom="1.4"
     inkscape:pageshadow="2"
     inkscape:pageopacity="0.0"
     borderopacity="1.0"
     bordercolor="#666666"
     pagecolor="#ffffff"
     id="base"
     inkscape:pagecheckerboard="false"
     borderlayer="true" />
  <metadata
     id="metadata139">
    <rdf:RDF>
      <cc:Work
         rdf:about="">
        <dc:format>image/svg+xml</dc:format>
        <dc:type
           rdf:resource="http://purl.org/dc/dcmitype/StillImage" />
        <dc:title></dc:title>
      </cc:Work>
    </rdf:RDF>
  </metadata>
  <g
     transform="translate(-10,-10)"
     id="layer1"
     inkscape:groupmode="layer"
     inkscape:label="Layer 1">
    <g
       transform="translate(-50.000111,-110.0005)"
       id="g1224">
      <path
         id="path1200"
         style="font-style:italic;font-variant:normal;font-weight:300;font-stretch:normal;font-size:16.9333px;line-height:1.25;font-family:Nunito;-inkscape-font-specification:'Nunito Light Italic';text-align:end;white-space:pre;fill:#000000;fill-opacity:1;stroke-width:1"
         d="m 101.69011,120.1685 -2.944256,3.98884 c -0.06588,0.077 -0.10077,0.18075 -0.10077,0.31368 0,0.23706 0.163558,0.35554 0.490927,0.35553 l 1.744099,-5e-5 c -0.26964,1.69138 -1.099999,6.875 -1.099999,6.875 -0.0692,0.39455 0.0726,0.609 0.422999,0.609 0.33904,0 0.5401,-0.17274 0.593,-0.508 l 1.1,-6.97595 1.744,-5e-5 c 0.36123,1.6e-4 0.542,-0.16362 0.542,-0.491 0,-0.12638 -0.0185,-0.2633 -0.0809,-0.36057 l -1.5431,-3.73643 c 0,0 -0.12148,-0.238 -0.428,-0.238 -0.28283,0 -0.37467,0.0963 -0.44,0.168 z"
         sodipodi:nodetypes="ccssccscccscccc" />
      <path
         id="path1202"
         style="font-style:italic;font-variant:normal;font-weight:bold;font-stretch:normal;font-size:16.9333px;line-height:1.25;font-family:Nunito;-inkscape-font-specification:'Nunito Bold Italic';text-align:end;white-space:pre;fill:#00bf5f;fill-opacity:1"
         d="m 60.936784,132.34487 q -0.52493,0 -0.762,-0.33866 -0.23706,-0.33867 -0.15239,-0.93133 l 1.54093,-9.73665 q 0.16933,-1.0668 1.25306,-1.0668 h 3.55599 q 1.9812,0 3.01413,0.8636 1.03293,0.84667 1.03293,2.45533 0,1.94733 -1.20226,3.04799 -1.20227,1.10067 -3.48826,1.10067 h -3.01413 l -0.5588,3.52212 q -0.16933,1.08373 -1.2192,1.08373 z m 2.04893,-6.31612 h 2.8448 q 1.21919,0 1.84573,-0.57573 0.64346,-0.59266 0.64346,-1.69333 0,-1.778 -2.20133,-1.778 h -2.48919 z" />
      <path
         id="path1204"
         style="font-style:italic;font-variant:normal;font-weight:bold;font-stretch:normal;font-size:16.9333px;line-height:1.25;font-family:Nunito;-inkscape-font-specification:'Nunito Bold Italic';text-align:end;white-space:pre;fill:#00bf5f;fill-opacity:1"
         d="m 71.563754,132.34487 q -0.508,0 -0.74506,-0.3048 -0.22014,-0.32173 -0.13547,-0.89746 l 0.99907,-6.33305 q 0.15239,-1.016 1.18533,-1.016 0.49106,0 0.71119,0.3048 0.23707,0.3048 0.1524,0.88053 l -0.0508,0.33867 q 0.4064,-0.7112 1.10067,-1.10067 0.69426,-0.4064 1.59173,-0.4572 0.47413,-0.0339 0.62653,0.13547 0.16933,0.16933 0.16933,0.5588 0,0.5588 -0.254,0.82973 -0.25399,0.254 -0.79586,0.3048 l -0.49107,0.0508 q -1.13453,0.11853 -1.62559,0.69426 -0.49107,0.5588 -0.6604,1.5748 l -0.54187,3.42053 q -0.1524,1.01599 -1.23613,1.01599 z" />
      <path
         id="path1206"
         style="font-style:italic;font-variant:normal;font-weight:bold;font-stretch:normal;font-size:16.9333px;line-height:1.25;font-family:Nunito;-inkscape-font-specification:'Nunito Bold Italic';text-align:end;white-space:pre;fill:#00bf5f;fill-opacity:1"
         d="m 79.820064,122.23569 q -0.57573,0 -0.8636,-0.27093 -0.27093,-0.28786 -0.22013,-0.79586 0.13546,-1.1684 1.43933,-1.1684 0.57573,0 0.8636,0.28787 0.28786,0.27093 0.22013,0.77893 -0.1524,1.16839 -1.43933,1.16839 z m -1.6256,10.10918 q -0.49106,0 -0.72813,-0.32173 -0.22013,-0.33866 -0.13547,-0.9144 l 0.99907,-6.26532 q 0.18626,-1.04986 1.21919,-1.04986 0.49107,0 0.7112,0.32173 0.23707,0.32173 0.1524,0.9144 l -0.99906,6.26532 q -0.18627,1.04986 -1.2192,1.04986 z" />
      <path
         id="path1208"
         style="font-style:italic;font-variant:normal;font-weight:bold;font-stretch:normal;font-size:16.9333px;line-height:1.25;font-family:Nunito;-inkscape-font-specification:'Nunito Bold Italic';text-align:end;white-space:pre;fill:#00bf5f;fill-opacity:1"
         d="m 85.625804,132.37874 q -1.9812,0 -2.96333,-1.03293 -0.98213,-1.04986 -0.98213,-2.74319 0,-0.9144 0.27093,-1.778 0.28787,-0.88053 0.8636,-1.55786 0.57573,-0.69427 1.45627,-1.10067 0.89746,-0.4064 2.09972,-0.4064 0.6096,0 1.20227,0.1524 0.59266,0.13547 1.04986,0.37253 0.42334,0.22014 0.508,0.5588 0.1016,0.32174 -0.0339,0.6096 -0.11854,0.28787 -0.4064,0.42333 -0.27094,0.11854 -0.6096,-0.0677 -0.74507,-0.40639 -1.5748,-0.40639 -0.9652,0 -1.55786,0.47413 -0.57574,0.47413 -0.84667,1.20226 -0.254,0.72813 -0.254,1.50707 0,0.96519 0.47413,1.55786 0.49107,0.59267 1.60867,0.59267 0.32173,0 0.67733,-0.0847 0.37253,-0.0847 0.77893,-0.30479 0.3048,-0.1524 0.5588,-0.0339 0.254,0.11853 0.38947,0.38946 0.13546,0.254 0.0508,0.57573 -0.0677,0.3048 -0.44027,0.52494 -0.44026,0.27093 -1.10066,0.42333 -0.6604,0.1524 -1.2192,0.1524 z" />
      <path
         id="path1210"
         style="font-style:italic;font-variant:normal;font-weight:bold;font-stretch:normal;font-size:16.9333px;line-height:1.25;font-family:Nunito;-inkscape-font-specification:'Nunito Bold Italic';text-align:end;white-space:pre;fill:#00bf5f;fill-opacity:1"
         d="m 93.633404,132.37874 q -1.25307,0 -2.1844,-0.4572 -0.9144,-0.47413 -1.42239,-1.3208 -0.508,-0.84666 -0.508,-1.98119 0,-1.38853 0.57573,-2.47226 0.59266,-1.10067 1.6256,-1.74413 1.03293,-0.64347 2.37066,-0.64347 1.03293,0 1.72719,0.3556 0.69427,0.3556 1.10067,0.9652 0.4064,0.59266 0.54186,1.35466 0.13547,0.762 0.0508,1.55787 -0.0339,0.35559 -0.18626,0.45719 -0.1524,0.1016 -0.42333,0.1016 h -5.40173 q -0.0339,1.03294 0.57573,1.6256 0.6096,0.59267 1.74413,0.59267 0.508,0 1.04987,-0.1016 0.54186,-0.11854 0.98213,-0.37254 0.38947,-0.23706 0.6604,-0.13546 0.28787,0.0847 0.4064,0.33866 0.13547,0.254 0.0339,0.57574 -0.0847,0.3048 -0.42334,0.54186 -0.59266,0.38947 -1.40546,0.57573 -0.8128,0.18627 -1.49013,0.18627 z m 0.44026,-7.17972 q -0.71119,0 -1.20226,0.3048 -0.47413,0.28787 -0.77893,0.77893 -0.28787,0.49107 -0.4064,1.04987 h 4.18252 q 0.0677,-0.9144 -0.3556,-1.524 -0.42333,-0.6096 -1.43933,-0.6096 z" />
      <path
         id="path1212"
         style="font-style:italic;font-variant:normal;font-weight:300;font-stretch:normal;font-size:16.9333px;line-height:1.25;font-family:Nunito;-inkscape-font-specification:'Nunito Light Italic';text-align:end;white-space:pre"
         d="m 105.01099,132.31101 q -0.54187,0 -0.42334,-0.59267 l 1.15147,-7.33212 q 0.0677,-0.508 0.57573,-0.508 0.23707,0 0.3556,0.16934 0.11853,0.1524 0.0677,0.44026 l -0.13546,0.8636 q 0.44026,-0.72813 1.20226,-1.1176 0.762,-0.38946 1.64253,-0.4064 0.32173,0 0.44027,0.0847 0.13546,0.0847 0.13546,0.28787 0,0.254 -0.11853,0.38947 -0.11853,0.11853 -0.44026,0.1524 l -0.27094,0.0169 q -1.45626,0.13546 -2.09973,0.88053 -0.62653,0.72813 -0.8128,1.93039 l -0.67733,4.25026 q -0.0847,0.49107 -0.59266,0.49107 z" />
      <path
         id="path1214"
         style="font-style:italic;font-variant:normal;font-weight:300;font-stretch:normal;font-size:16.9333px;line-height:1.25;font-family:Nunito;-inkscape-font-specification:'Nunito Light Italic';text-align:end;white-space:pre"
         d="m 112.88391,132.34487 q -0.69426,0 -1.30386,-0.3048 -0.6096,-0.3048 -0.99907,-0.84666 -0.37253,-0.5588 -0.37253,-1.28693 0,-1.28693 1.10067,-1.84573 1.11759,-0.5588 3.55599,-0.5588 h 1.20226 l 0.0847,-0.59267 q 0.18627,-1.06679 -0.254,-1.62559 -0.44027,-0.5588 -1.55786,-0.5588 -0.6604,0 -1.25307,0.13547 -0.57573,0.13546 -1.1176,0.47413 -0.30479,0.18626 -0.52493,0.0677 -0.2032,-0.13547 -0.2032,-0.38947 0.0169,-0.254 0.3556,-0.44026 0.6096,-0.37254 1.33773,-0.54187 0.74507,-0.18627 1.49013,-0.18627 1.59173,0 2.26907,0.9144 0.67733,0.89747 0.42333,2.4384 l -0.72813,4.60586 q -0.0847,0.50799 -0.57574,0.50799 -0.49106,0 -0.4064,-0.59266 l 0.13547,-0.82973 q -0.44026,0.74506 -1.1684,1.10066 -0.72813,0.3556 -1.49013,0.3556 z m 0.18627,-0.82973 q 0.98213,0 1.76106,-0.6604 0.79587,-0.67733 0.99907,-1.87959 l 0.1016,-0.7112 h -0.82973 q -1.43934,0 -2.26907,0.1524 -0.82973,0.13546 -1.18533,0.49106 -0.33866,0.3556 -0.33866,0.94827 0,0.82973 0.52493,1.25306 0.54186,0.4064 1.23613,0.4064 z" />
      <path
         id="path1216"
         style="font-style:italic;font-variant:normal;font-weight:300;font-stretch:normal;font-size:16.9333px;line-height:1.25;font-family:Nunito;-inkscape-font-specification:'Nunito Light Italic';text-align:end;white-space:pre"
         d="m 122.57796,132.34487 q -1.76106,0 -2.60772,-0.99906 -0.84667,-0.99907 -0.84667,-2.60773 0,-0.89746 0.23707,-1.76106 0.254,-0.88053 0.76199,-1.5748 0.52494,-0.7112 1.33774,-1.13453 0.81279,-0.42333 1.93039,-0.42333 0.64347,0 1.25307,0.2032 0.62653,0.18626 1.04986,0.49106 0.32173,0.23707 0.32173,0.508 0.0169,0.27094 -0.16933,0.4064 -0.18627,0.13547 -0.4572,-0.0677 -0.84666,-0.64346 -1.99813,-0.64346 -0.8636,0 -1.4732,0.33866 -0.60959,0.33867 -0.99906,0.93133 -0.38947,0.57574 -0.57573,1.28693 -0.16934,0.7112 -0.16934,1.43933 0,1.23614 0.57574,1.9812 0.59266,0.74507 1.93039,0.74507 0.42334,0 0.9144,-0.13547 0.49107,-0.1524 0.93133,-0.47413 0.254,-0.16934 0.44027,-0.0339 0.2032,0.11853 0.22013,0.3556 0.0339,0.23706 -0.22013,0.42333 -0.47413,0.3556 -1.13453,0.5588 -0.64347,0.18626 -1.25307,0.18626 z" />
      <path
         id="path1218"
         style="font-style:italic;font-variant:normal;font-weight:300;font-stretch:normal;font-size:16.9333px;line-height:1.25;font-family:Nunito;-inkscape-font-specification:'Nunito Light Italic';text-align:end;white-space:pre"
         d="m 127.28516,132.31101 q -0.52493,0 -0.42334,-0.59267 l 1.74413,-11.05744 q 0.0677,-0.49107 0.59267,-0.49107 0.52493,0 0.42333,0.6096 l -1.10066,6.94265 h 0.0339 l 4.40266,-3.55599 q 0.16934,-0.1524 0.28787,-0.22013 0.13547,-0.0677 0.32173,-0.0677 0.28787,0 0.37253,0.27093 0.0847,0.254 -0.2032,0.508 l -4.14865,3.38666 3.47132,3.50519 q 0.23707,0.254 0.11854,0.508 -0.1016,0.254 -0.38947,0.254 -0.2032,0 -0.3556,-0.0847 -0.13547,-0.0847 -0.32173,-0.3048 l -3.64066,-3.67452 h -0.0339 l -0.5588,3.57292 q -0.0847,0.49107 -0.59266,0.49107 z" />
      <path
         id="path1220"
         style="font-style:italic;font-variant:normal;font-weight:300;font-stretch:normal;font-size:16.9333px;line-height:1.25;font-family:Nunito;-inkscape-font-specification:'Nunito Light Italic';text-align:end;white-space:pre"
         d="m 138.52384,132.34487 q -1.71026,0 -2.69239,-0.94826 -0.98213,-0.94827 -0.98213,-2.62466 0,-1.3208 0.508,-2.4384 0.52493,-1.1176 1.47319,-1.79493 0.9652,-0.69426 2.31986,-0.69426 1.25307,0 1.9812,0.59266 0.72813,0.57574 0.98213,1.49013 0.27093,0.9144 0.13547,1.9304 -0.0339,0.27093 -0.13547,0.37253 -0.1016,0.0847 -0.32173,0.0847 h -5.90972 q -0.16934,1.4224 0.54186,2.30293 0.7112,0.8636 2.11667,0.8636 0.67733,0 1.25306,-0.1524 0.57573,-0.16933 1.1176,-0.5588 0.32173,-0.22013 0.508,-0.1016 0.2032,0.1016 0.2032,0.3556 0.0169,0.254 -0.27094,0.4572 -0.5588,0.42333 -1.32079,0.64346 -0.762,0.22014 -1.50707,0.22014 z m 0.6096,-7.67078 q -0.9652,0 -1.60866,0.42333 -0.64347,0.42333 -1.016,1.08373 -0.37253,0.6604 -0.508,1.3716 h 5.38479 q 0.0847,-0.79587 -0.11853,-1.43933 -0.2032,-0.6604 -0.72813,-1.04986 -0.508,-0.38947 -1.40547,-0.38947 z" />
      <path
         id="path1222"
         style="font-style:italic;font-variant:normal;font-weight:300;font-stretch:normal;font-size:16.9333px;line-height:1.25;font-family:Nunito;-inkscape-font-specification:'Nunito Light Italic';text-align:end;white-space:pre"
         d="m 144.20231,132.31101 q -0.54186,0 -0.42333,-0.59267 l 1.15147,-7.33212 q 0.0677,-0.508 0.57573,-0.508 0.23706,0 0.3556,0.16934 0.11853,0.1524 0.0677,0.44026 l -0.13547,0.8636 q 0.44027,-0.72813 1.20227,-1.1176 0.762,-0.38946 1.64253,-0.4064 0.32173,0 0.44026,0.0847 0.13547,0.0847 0.13547,0.28787 0,0.254 -0.11853,0.38947 -0.11854,0.11853 -0.44027,0.1524 l -0.27093,0.0169 q -1.45627,0.13546 -2.09973,0.88053 -0.62653,0.72813 -0.8128,1.93039 l -0.67733,4.25026 q -0.0847,0.49107 -0.59267,0.49107 z" />
    </g>
  </g>
</svg>
