<?xml version="1.0" encoding="UTF-8" standalone="no"?>
<svg
   xmlns:dc="http://purl.org/dc/elements/1.1/"
   xmlns:cc="http://creativecommons.org/ns#"
   xmlns:rdf="http://www.w3.org/1999/02/22-rdf-syntax-ns#"
   xmlns:svg="http://www.w3.org/2000/svg"
   xmlns="http://www.w3.org/2000/svg"
   xmlns:sodipodi="http://sodipodi.sourceforge.net/DTD/sodipodi-0.dtd"
   xmlns:inkscape="http://www.inkscape.org/namespaces/inkscape"
   viewBox="0 0 295.5665 294.11775"
   width="300"
   height="300.00009"
   class="illustration styles_illustrationTablet__1DWOa"
   version="1.1"
   id="svg967"
   sodipodi:docname="Credit Card_Flatline.svg"
   inkscape:version="1.0 (4035a4fb49, 2020-05-01)">
  <metadata
     id="metadata973">
    <rdf:RDF>
      <cc:Work
         rdf:about="">
        <dc:format>image/svg+xml</dc:format>
        <dc:type
           rdf:resource="http://purl.org/dc/dcmitype/StillImage" />
        <dc:title></dc:title>
      </cc:Work>
    </rdf:RDF>
  </metadata>
  <defs
     id="defs971" />
  <sodipodi:namedview
     inkscape:document-rotation="0"
     pagecolor="#ffffff"
     bordercolor="#666666"
     borderopacity="1"
     objecttolerance="10"
     gridtolerance="10"
     guidetolerance="10"
     inkscape:pageopacity="0"
     inkscape:pageshadow="2"
     inkscape:window-width="1920"
     inkscape:window-height="1001"
     id="namedview969"
     showgrid="false"
     inkscape:object-paths="true"
     inkscape:snap-intersection-paths="true"
     inkscape:snap-smooth-nodes="true"
     fit-margin-top="0"
     fit-margin-left="0"
     fit-margin-right="0"
     fit-margin-bottom="0"
     inkscape:zoom="1.3856209"
     inkscape:cx="199.81462"
     inkscape:cy="140.13268"
     inkscape:window-x="-9"
     inkscape:window-y="-9"
     inkscape:window-maximized="1"
     inkscape:current-layer="_392_credit_card_flatline"
     inkscape:snap-nodes="false" />
  <g
     transform="translate(55.673971,89.459699)"
     id="_392_credit_card_flatline"
     data-name="#392_credit_card_flatline">
    <path
       d="m 183.53412,6.1187445 -0.0115,102.9533855 a 6.15,6.15 0 0 1 -6.15489,6.15161 l -22.34385,-0.0232 -148.1814255,-6.7e-4 a 6.14,6.14 0 0 1 -6.15803378,-6.1842 L 0.71425363,6.099273 A 6.14,6.14 0 0 1 6.8886876,-0.05662011 l 81.7516014,0.0142346 88.767241,-0.0197269 a 6.15,6.15 0 0 1 6.12659,6.18085691 z"
       fill="#68e1fd"
       id="path922"
       style="fill:#dfdfdf;fill-opacity:1" />
    <path
       d="m 178.85447,116.20037 a 6.77,6.77 0 0 1 -1.47992,0.16083 L 6.8330871,116.31022 A 6.83,6.83 0 0 1 1.5970292e-6,109.47555 L 0.04720961,6.5450458 A 6.82,6.82 0 0 1 6.8721172,-0.28589502 l 170.5133528,0.016186 a 6.87,6.87 0 0 1 6.83309,6.83466802 v 0 l -0.009,102.963151 a 6.84,6.84 0 0 1 -5.35476,6.67226 z M 5.6661986,1.2173946 A 5.44,5.44 0 0 0 1.3986927,6.5454875 L 1.3795881,109.51078 a 5.47,5.47 0 0 0 5.4560813,5.45773 l 170.5643406,0.0152 a 5.47,5.47 0 0 0 5.46535,-5.46799 L 182.84754,6.5688017 v 0 A 5.47,5.47 0 0 0 177.38169,1.1132179 L 6.8564211,1.0894061 A 5.36,5.36 0 0 0 5.6661986,1.2173946 Z M 183.53412,6.571764 Z"
       fill="#231f20"
       id="path924"
       style="fill:#000000;fill-opacity:1" />
    <rect
       x="22.668318"
       y="42.31152"
       width="25.614105"
       height="21.672714"
       rx="4.8699999"
       transform="matrix(0.99999999,1.3617651e-4,-1.3903804e-4,0.99999999,0,0)"
       fill="#ffffff"
       id="rect926"
       ry="4.8699999"
       style="fill:#ffdf7f;fill-opacity:1;stroke-width:1" />
    <rect
       x="-63.910088"
       y="30.942286"
       width="21.34"
       height="1"
       transform="rotate(-89.992116)"
       fill="#d1d3d4"
       id="rect930"
       style="fill:#3f3f3f;fill-opacity:1" />
    <rect
       x="-63.909004"
       y="39.114384"
       width="21.34"
       height="1"
       transform="rotate(-89.992116)"
       fill="#d1d3d4"
       id="rect932"
       style="fill:#3f3f3f;fill-opacity:1" />
    <rect
       x="-47.944077"
       y="22.66687"
       width="1"
       height="25.615623"
       transform="matrix(1.4121614e-4,-0.99999999,0.99999999,1.3407988e-4,0,0)"
       fill="#d1d3d4"
       id="rect934"
       style="fill:#3f3f3f;fill-opacity:1;stroke-width:1" />
    <rect
       x="-59.56123"
       y="22.66851"
       width="1"
       height="25.615623"
       transform="matrix(1.4121614e-4,-0.99999999,0.99999999,1.3407988e-4,0,0)"
       fill="#d1d3d4"
       id="rect936"
       style="fill:#3f3f3f;fill-opacity:1;stroke-width:1" />
    <rect
       x="-51.611012"
       y="22.66806"
       width="1"
       height="8.8668413"
       transform="matrix(1.5424689e-4,-0.99999999,0.99999999,1.2275284e-4,0,0)"
       fill="#d1d3d4"
       id="rect938"
       style="fill:#3f3f3f;fill-opacity:1;stroke-width:1" />
    <rect
       x="-55.870564"
       y="22.668716"
       width="1"
       height="8.8668413"
       transform="matrix(1.5424689e-4,-0.99999999,0.99999999,1.2275284e-4,0,0)"
       fill="#d1d3d4"
       id="rect940"
       style="fill:#3f3f3f;fill-opacity:1;stroke-width:1" />
    <rect
       x="-51.621201"
       y="39.619244"
       width="1.03"
       height="8.8668451"
       transform="matrix(1.4542234e-4,-0.99999999,0.99999999,1.3020176e-4,0,0)"
       fill="#d1d3d4"
       id="rect942"
       style="fill:#3f3f3f;fill-opacity:1;stroke-width:1" />
    <rect
       x="-55.880669"
       y="39.620678"
       width="1.03"
       height="8.8668451"
       transform="matrix(1.4542234e-4,-0.99999999,0.99999999,1.3020176e-4,0,0)"
       fill="#d1d3d4"
       id="rect944"
       style="fill:#3f3f3f;fill-opacity:1;stroke-width:1" />
    <rect
       x="23.04525"
       y="72.342804"
       width="24.18"
       height="7.8800001"
       rx="3.47"
       transform="rotate(0.00788389)"
       fill="#ffffff"
       id="rect946"
       ry="3.47" />
    <rect
       x="55.587437"
       y="72.337196"
       width="24.18"
       height="7.8800001"
       rx="3.47"
       transform="rotate(0.00788389)"
       fill="#ffffff"
       id="rect948"
       ry="3.47" />
    <rect
       x="88.129875"
       y="72.343727"
       width="24.18"
       height="7.8800001"
       rx="3.47"
       transform="rotate(0.00788389)"
       fill="#ffffff"
       id="rect950"
       ry="3.47" />
    <rect
       x="120.68208"
       y="72.348106"
       width="24.18"
       height="7.8800001"
       rx="3.47"
       transform="rotate(0.00788389)"
       fill="#ffffff"
       id="rect952"
       ry="3.47" />
    <path
       d="m 71.793221,95.608602 a 0.36,0.36 0 0 1 -0.136755,0.02996 L 23.03247,95.616232 a 0.69,0.69 0 0 1 0.0054,-1.373161 l 48.60995,0.0049 a 0.69,0.69 0 0 1 0.69339,0.687399 0.7,0.7 0 0 1 -0.548509,0.673156 z"
       fill="#231f20"
       id="path954"
       style="fill:#000000;fill-opacity:1" />
    <path
       d="m 92.259584,95.613595 -0.14651,0.03214 -7.504738,-0.0021 a 0.69,0.69 0 1 1 -0.0036,-1.371023 l 7.514503,-8e-5 a 0.69,0.69 0 0 1 0.144882,1.360555 z"
       fill="#231f20"
       id="path956"
       style="fill:#000000;fill-opacity:1" />
    <path
       d="m 107.87106,95.608565 -0.13675,0.02996 -7.50473,-0.0021 a 0.69,0.69 0 0 1 -0.68362,-0.689545 0.68,0.68 0 0 1 0.68954,-0.683614 l 7.50473,0.0021 a 0.68,0.68 0 0 1 0.14274,1.350789 z"
       fill="#231f20"
       id="path958"
       style="fill:#000000;fill-opacity:1" />
    <path
       d="m 93.903156,100.25933 a 0.75,0.75 0 0 1 -0.509565,-0.0828 0.7,0.7 0 0 1 -0.214257,-0.976776 l 5.211386,-8.585981 a 0.69,0.69 0 0 1 0.976777,-0.214268 0.68,0.68 0 0 1 0.214267,0.976777 L 94.3444,99.937246 a 0.68,0.68 0 0 1 -0.441244,0.322024 z"
       fill="#231f20"
       id="path960"
       style="fill:#000000;fill-opacity:1" />
    <path
       d="m 26.870478,42.684677 a 4.66,4.66 0 0 1 1.000349,-0.106815 l 15.223152,-0.0018 a 4.87,4.87 0 0 1 4.927301,4.867314 l 0.003,11.588473 a 4.88,4.88 0 0 1 -3.828842,4.760937 5.43,5.43 0 0 1 -1.049186,0.117527 L 27.93072,63.900113 A 4.87,4.87 0 0 1 23.054402,59.03185 l 0.0068,-11.590619 a 4.88,4.88 0 0 1 3.828842,-4.760932 m -0.15855,-0.722815 v 0 a 5.65,5.65 0 0 0 -4.407859,5.48173 l -0.0068,11.590619 a 5.61,5.61 0 0 0 5.611858,5.607837 l 15.215532,0.0102 a 6.22,6.22 0 0 0 1.209753,-0.132267 5.65,5.65 0 0 0 4.407849,-5.481736 l -0.003,-11.588474 a 5.62,5.62 0 0 0 -5.614004,-5.617604 l -15.213396,-3.88e-4 a 5.38,5.38 0 0 0 -1.199978,0.130131 z"
       fill="#231f20"
       id="path928"
       style="fill:#000000;fill-opacity:1" />
    <ellipse
       style="fill:none;fill-opacity:0;stroke:#000000;stroke-width:35.468;stroke-linecap:round;stroke-linejoin:round;stroke-miterlimit:4;stroke-dasharray:none"
       id="path2144"
       cx="92.109283"
       cy="58.037704"
       rx="130.04926"
       ry="130.0493" />
    <path
       style="fill:none;stroke:#000000;stroke-width:35.468;stroke-linecap:butt;stroke-linejoin:miter;stroke-miterlimit:4;stroke-dasharray:none;stroke-opacity:1"
       d="M -10.548266,-44.620003 181.41037,147.33854"
       id="path2146" />
  </g>
</svg>
